<?xml version="1.0" encoding="UTF-8"?>
<svg xmlns="http://www.w3.org/2000/svg" xmlns:xlink="http://www.w3.org/1999/xlink" width="48pt" height="48pt" viewBox="0 0 48 48" version="1.1">
<defs>
<radialGradient id="radial0" gradientUnits="userSpaceOnUse" cx="70.438187" cy="146.747787" fx="70.438187" fy="146.747787" r="151.234802" gradientTransform="matrix(0.27907,0,0,0.27907,0,0)">
<stop offset="0" style="stop-color:rgb(100%,86.666667%,33.333334%);stop-opacity:1;"/>
<stop offset="0.328" style="stop-color:rgb(100%,32.941177%,24.705882%);stop-opacity:1;"/>
<stop offset="0.348" style="stop-color:rgb(98.823529%,32.156864%,27.058825%);stop-opacity:1;"/>
<stop offset="0.504" style="stop-color:rgb(90.196079%,27.843139%,44.313726%);stop-opacity:1;"/>
<stop offset="0.643" style="stop-color:rgb(83.529413%,24.313726%,56.862748%);stop-opacity:1;"/>
<stop offset="0.761" style="stop-color:rgb(80.000001%,22.352941%,64.313728%);stop-opacity:1;"/>
<stop offset="0.841" style="stop-color:rgb(78.431374%,21.568628%,67.058825%);stop-opacity:1;"/>
</radialGradient>
<radialGradient id="radial1" gradientUnits="userSpaceOnUse" cx="44.85907" cy="23.82148" fx="44.85907" fy="23.82148" r="100.42012" gradientTransform="matrix(0.27907,0,0,0.27907,0,0)">
<stop offset="0" style="stop-color:rgb(25.490198%,40.784314%,78.823531%);stop-opacity:1;"/>
<stop offset="0.999" style="stop-color:rgb(25.490198%,40.784314%,78.823531%);stop-opacity:0;"/>
</radialGradient>
</defs>
<g id="surface36785894">
<path style=" stroke:none;fill-rule:nonzero;fill:rgb(80.000001%,80.000001%,80.000001%);fill-opacity:1;" d="M 0 24 C 0 10.746094 10.746094 0 24 0 C 37.253906 0 48 10.746094 48 24 C 48 37.253906 37.253906 48 24 48 C 10.746094 48 0 37.253906 0 24 Z M 24 38.398438 C 31.953125 38.398438 38.398438 31.953125 38.398438 24 C 38.398438 16.046875 31.953125 9.601562 24 9.601562 C 16.046875 9.601562 9.601562 16.046875 9.601562 24 C 9.601562 31.953125 16.046875 38.398438 24 38.398438 Z M 24 38.398438 "/>
<path style=" stroke:none;fill-rule:nonzero;fill:url(#radial0);" d="M 33.414062 40.910156 L 14.617188 40.929688 C 10.480469 40.933594 7.09375 37.550781 7.089844 33.414062 L 7.070312 14.617188 C 7.066406 10.480469 10.445312 7.09375 14.582031 7.089844 L 33.382812 7.070312 C 37.519531 7.066406 40.90625 10.445312 40.910156 14.582031 L 40.929688 33.382812 C 40.933594 37.519531 37.550781 40.90625 33.414062 40.910156 Z M 33.414062 40.910156 "/>
<path style=" stroke:none;fill-rule:nonzero;fill:url(#radial1);" d="M 33.414062 40.910156 L 14.617188 40.929688 C 10.480469 40.933594 7.09375 37.550781 7.089844 33.414062 L 7.070312 14.617188 C 7.066406 10.480469 10.445312 7.09375 14.582031 7.089844 L 33.382812 7.070312 C 37.519531 7.066406 40.90625 10.445312 40.910156 14.582031 L 40.929688 33.382812 C 40.933594 37.519531 37.550781 40.90625 33.414062 40.910156 Z M 33.414062 40.910156 "/>
<path style=" stroke:none;fill-rule:nonzero;fill:rgb(100%,100%,100%);fill-opacity:1;" d="M 24 30.578125 C 20.371094 30.578125 17.421875 27.628906 17.421875 24 C 17.421875 20.371094 20.371094 17.421875 24 17.421875 C 27.628906 17.421875 30.578125 20.371094 30.578125 24 C 30.578125 27.628906 27.628906 30.578125 24 30.578125 Z M 24 19.300781 C 21.410156 19.300781 19.300781 21.410156 19.300781 24 C 19.300781 26.589844 21.410156 28.699219 24 28.699219 C 26.589844 28.699219 28.699219 26.589844 28.699219 24 C 28.699219 21.410156 26.589844 19.300781 24 19.300781 Z M 24 19.300781 "/>
<path style=" stroke:none;fill-rule:nonzero;fill:rgb(100%,100%,100%);fill-opacity:1;" d="M 32.460938 16.949219 C 32.460938 17.730469 31.828125 18.359375 31.050781 18.359375 C 30.269531 18.359375 29.640625 17.730469 29.640625 16.949219 C 29.640625 16.171875 30.269531 15.539062 31.050781 15.539062 C 31.828125 15.539062 32.460938 16.171875 32.460938 16.949219 Z M 32.460938 16.949219 "/>
<path style=" stroke:none;fill-rule:nonzero;fill:rgb(100%,100%,100%);fill-opacity:1;" d="M 29.640625 36.21875 L 18.359375 36.21875 C 14.734375 36.21875 11.78125 33.269531 11.78125 29.640625 L 11.78125 18.359375 C 11.78125 14.730469 14.734375 11.78125 18.359375 11.78125 L 29.640625 11.78125 C 33.265625 11.78125 36.21875 14.730469 36.21875 18.359375 L 36.21875 29.640625 C 36.21875 33.269531 33.265625 36.21875 29.640625 36.21875 Z M 18.359375 13.660156 C 15.769531 13.660156 13.660156 15.769531 13.660156 18.359375 L 13.660156 29.640625 C 13.660156 32.230469 15.769531 34.339844 18.359375 34.339844 L 29.640625 34.339844 C 32.230469 34.339844 34.339844 32.230469 34.339844 29.640625 L 34.339844 18.359375 C 34.339844 15.769531 32.230469 13.660156 29.640625 13.660156 Z M 18.359375 13.660156 "/>
</g>
</svg>
