<?xml version="1.0" encoding="UTF-8"?>
<svg xmlns="http://www.w3.org/2000/svg" xmlns:xlink="http://www.w3.org/1999/xlink" width="48pt" height="48pt" viewBox="0 0 48 48" version="1.1">
<defs>
<linearGradient id="linear0" gradientUnits="userSpaceOnUse" x1="44.228432" y1="37.461899" x2="138.461273" y2="131.694748" gradientTransform="matrix(0.27907,0,0,0.27907,0,0)">
<stop offset="0" style="stop-color:rgb(16.470589%,64.313728%,95.686275%);stop-opacity:1;"/>
<stop offset="1" style="stop-color:rgb(0%,47.843137%,85.09804%);stop-opacity:1;"/>
</linearGradient>
</defs>
<g id="surface36788746">
<path style=" stroke:none;fill-rule:nonzero;fill:rgb(80.000001%,80.000001%,80.000001%);fill-opacity:1;" d="M 24 48 C 10.746094 48 0 37.253906 0 24 C 0 10.746094 10.746094 0 24 0 C 37.253906 0 48 10.746094 48 24 C 48 37.253906 37.253906 48 24 48 Z M 24 48 "/>
<path style=" stroke:none;fill-rule:nonzero;fill:url(#linear0);" d="M 43.222656 12.792969 C 41.882812 13.386719 40.441406 13.78125 38.921875 13.96875 C 40.46875 13.050781 41.65625 11.589844 42.214844 9.859375 C 40.769531 10.707031 39.167969 11.328125 37.464844 11.65625 C 36.105469 10.214844 34.164062 9.320312 32.011719 9.320312 C 27.882812 9.320312 24.535156 12.640625 24.535156 16.730469 C 24.535156 17.3125 24.601562 17.875 24.730469 18.421875 C 18.515625 18.109375 13.003906 15.15625 9.316406 10.671875 C 8.671875 11.769531 8.304688 13.050781 8.304688 14.40625 C 8.304688 16.976562 9.621094 19.242188 11.632812 20.578125 C 10.40625 20.539062 9.25 20.199219 8.242188 19.652344 C 8.242188 19.671875 8.242188 19.707031 8.242188 19.738281 C 8.242188 23.332031 10.820312 26.324219 14.238281 27.007812 C 13.613281 27.179688 12.953125 27.273438 12.273438 27.273438 C 11.789062 27.273438 11.320312 27.21875 10.863281 27.136719 C 11.8125 30.074219 14.574219 32.222656 17.84375 32.285156 C 15.285156 34.269531 12.0625 35.457031 8.558594 35.457031 C 7.953125 35.457031 7.359375 35.421875 6.777344 35.351562 C 10.089844 37.449219 14.019531 38.679688 18.238281 38.679688 C 31.992188 38.679688 39.515625 27.386719 39.515625 17.589844 C 39.515625 17.265625 39.503906 16.949219 39.492188 16.632812 C 40.957031 15.59375 42.222656 14.289062 43.222656 12.792969 "/>
</g>
</svg>
